# xmcd
#
# Track frame offsets: 
#        150
#        10870
#        21335
#        33347
#        45275
#        57740
#        70837
#        80685
#        93145
#        105207
#        117170
#        127082
#        138007
#        150360
#        161377
#        170470
#        182260
#        194115
#
# Disc length: 2723 seconds
#
# Revision: 2
# Processed by: cddbd v1.5.2PL0 Copyright (c) Steve Scherf et al.
# Submitted via: ExactAudioCopyFreeDBPlugin 1.0
#
DISCID=dc0aa112
DTITLE=Various Artist - The Best of Excello Records
DYEAR=1990
DGENRE=Rhythm and Blues
TTITLE0=The Gladiolas - Little Darlin'
TTITLE1=Rudy Green - My Mumblin' Baby
TTITLE2=Louis Brooks and His Hi Toppers - It's Love Baby
TTITLE3=Ray Batts - Stealin' Sugar
TTITLE4=Robert Garrett - Quit My Drinkin'
TTITLE5=The Marigolds - Rollin' Stone
TTITLE6=Jerry McCain and His Upstarts - My Next Door Neighbor
TTITLE7=Arthur Gunter - Baby Let's Play House
TTITLE8=King Crooners - Now That She's Gone
TTITLE9=The Blues Rockers - Calling All Cows
TTITLE10=Lillian Offitt - Miss You So
TTITLE11=The Surf Riders - I'm Out
TTITLE12=The Crescendos - Oh, Julie
TTITLE13=Hooks Coleman - Find Young Girl
TTITLE14=Roy Teo - Mama Doll
TTITLE15=Jerry McCain and His Upstarts - Trying to Please
TTITLE16=Shy Guy Douglas - Long Gone
TTITLE17=The Meloaires - You Know Baby
EXTD=
EXTT0=
EXTT1=
EXTT2=
EXTT3=
EXTT4=
EXTT5=
EXTT6=
EXTT7=
EXTT8=
EXTT9=
EXTT10=
EXTT11=
EXTT12=
EXTT13=
EXTT14=
EXTT15=
EXTT16=
EXTT17=
PLAYORDER=
